<svg width="29" height="29" viewBox="0 0 29 29" fill="none" xmlns="http://www.w3.org/2000/svg">
<path d="M20.3865 5.69617H19.1873V3.90937C19.1873 2.91403 18.3718 2.09857 17.3765 2.09857H11.4045C10.4092 2.09857 9.5937 2.91403 9.5937 3.90937V5.69617H8.3945C7.07537 5.69617 5.99609 6.77546 5.99609 8.09458V8.25047C6.37984 8.14254 6.77557 8.09458 7.19529 8.09458H21.5857C22.0054 8.09458 22.4012 8.14254 22.7849 8.25047V8.09458C22.7849 6.77546 21.7056 5.69617 20.3865 5.69617Z" fill="#FACD66"/>
<path d="M16.7048 20.3025C16.321 20.3025 16.0212 20.6143 16.0212 20.986C16.0212 21.3578 16.333 21.6696 16.7048 21.6696C17.0765 21.6696 17.3883 21.3578 17.3883 20.986C17.3883 20.6143 17.0765 20.3025 16.7048 20.3025Z" fill="#FACD66"/>
<path d="M10.8767 21.3578C10.4929 21.3578 10.1931 21.6696 10.1931 22.0413C10.1931 22.4131 10.5049 22.7249 10.8767 22.7249C11.2484 22.7249 11.5602 22.4131 11.5602 22.0413C11.5602 21.6696 11.2604 21.3578 10.8767 21.3578Z" fill="#FACD66"/>
<path d="M22.7849 10.0493C22.4011 9.9414 22.0054 9.89343 21.5857 9.89343H7.19524C6.77552 9.89343 6.37978 9.9414 5.99604 10.0493C3.93341 10.589 2.39844 12.4717 2.39844 14.6902V21.8854C2.39844 24.5237 4.557 26.6822 7.19524 26.6822H21.5857C24.2239 26.6822 26.3825 24.5237 26.3825 21.8854V14.6902C26.3825 12.4717 24.8475 10.589 22.7849 10.0493ZM19.1872 15.9254V20.986C19.1872 22.3531 18.072 23.4684 16.7049 23.4684C15.3378 23.4684 14.2226 22.3531 14.2226 20.986C14.2226 19.619 15.3378 18.5037 16.7049 18.5037C16.9447 18.5037 17.1726 18.5517 17.3884 18.6116V17.1006L13.3711 18.1919V22.0413C13.3711 22.0533 13.3711 22.0653 13.3591 22.0773C13.3471 23.4324 12.2319 24.5357 10.8768 24.5357C9.5097 24.5357 8.39444 23.4204 8.39444 22.0413C8.39444 20.6623 9.5097 19.559 10.8768 19.559C11.1166 19.559 11.3445 19.607 11.5723 19.6669V17.5084V15.6496C11.5723 14.6183 12.2199 13.7788 13.2032 13.515L16.3811 12.6396C17.4004 12.3638 18.048 12.6276 18.4078 12.9034C18.7675 13.1792 19.1872 13.7189 19.1872 14.7862V15.9254Z" fill="#FACD66"/>
</svg>
