<svg width="29" height="29" viewBox="0 0 29 29" fill="none" xmlns="http://www.w3.org/2000/svg">
<path d="M13.491 9.42572H2.39844V19.4151C2.39844 19.487 2.39844 19.559 2.41043 19.6189H13.491V9.42572Z" fill="#D9D9D9"/>
<path d="M9.22192 7.62689H13.4911V2.39838H9.2579V7.48299C9.2579 7.53096 9.23392 7.57892 9.22192 7.62689Z" fill="#D9D9D9"/>
<path d="M7.45893 7.48301V2.59027C4.7967 3.1419 3.05786 4.91672 2.5542 7.62691H7.48291C7.47092 7.57895 7.45893 7.53098 7.45893 7.48301Z" fill="#D9D9D9"/>
<path d="M19.451 2.39838H15.2898V7.62689H19.451V2.39838Z" fill="#D9D9D9"/>
<path d="M21.2378 7.62694H26.2265C25.7228 4.89277 23.96 3.10596 21.2498 2.57831V7.59097C21.2498 7.60296 21.2378 7.61495 21.2378 7.62694Z" fill="#D9D9D9"/>
<path d="M21.2498 26.2025C23.876 25.6869 25.6029 24.008 26.1665 21.4177H21.2498V26.2025Z" fill="#D9D9D9"/>
<path d="M19.451 21.4177H15.2898V26.3824H19.451V21.4177Z" fill="#D9D9D9"/>
<path d="M15.2898 19.6189H26.3704C26.3824 19.559 26.3824 19.487 26.3824 19.4151V9.42572H15.2898V19.6189Z" fill="#D9D9D9"/>
<path d="M13.491 21.4177H9.25781V26.3824H13.491V21.4177Z" fill="#D9D9D9"/>
<path d="M2.61426 21.4177C3.17788 23.984 4.88075 25.6629 7.45903 26.1905V21.4177H2.61426Z" fill="#D9D9D9"/>
</svg>
