<svg width="29" height="29" viewBox="0 0 29 29" fill="none" xmlns="http://www.w3.org/2000/svg">
<path d="M9.29367 2.3984V5.996H8.39427C8.08248 5.996 7.78268 6.008 7.49487 6.05596V2.3984C7.49487 1.90673 7.9026 1.499 8.39427 1.499C8.88595 1.499 9.29367 1.90673 9.29367 2.3984Z" fill="#EFEEE0" fill-opacity="0.25"/>
<path d="M20.3864 5.996H8.39444C8.08265 5.996 7.78285 6.00799 7.49504 6.05596C4.4011 6.41572 2.39844 8.7062 2.39844 11.992V20.3864C2.39844 23.984 4.79684 26.3824 8.39444 26.3824H20.3864C23.9841 26.3824 26.3825 23.984 26.3825 20.3864V11.992C26.3825 8.3944 23.9841 5.996 20.3864 5.996ZM9.44974 19.1872C7.79484 19.1872 6.45174 17.8441 6.45174 16.1892C6.45174 14.5343 7.79484 13.1912 9.44974 13.1912C11.1046 13.1912 12.4477 14.5343 12.4477 16.1892C12.4477 17.8441 11.1046 19.1872 9.44974 19.1872ZM17.2445 19.487H16.6449C16.1533 19.487 15.7455 19.0793 15.7455 18.5876C15.7455 18.0959 16.1533 17.6882 16.6449 17.6882H17.2445C17.7362 17.6882 18.1439 18.0959 18.1439 18.5876C18.1439 19.0793 17.7362 19.487 17.2445 19.487ZM21.4417 19.487H20.8421C20.3505 19.487 19.9427 19.0793 19.9427 18.5876C19.9427 18.0959 20.3505 17.6882 20.8421 17.6882H21.4417C21.9334 17.6882 22.3411 18.0959 22.3411 18.5876C22.3411 19.0793 21.9334 19.487 21.4417 19.487ZM21.4417 14.6902H16.6449C16.1533 14.6902 15.7455 14.2825 15.7455 13.7908C15.7455 13.2991 16.1533 12.8914 16.6449 12.8914H21.4417C21.9334 12.8914 22.3411 13.2991 22.3411 13.7908C22.3411 14.2825 21.9334 14.6902 21.4417 14.6902Z" fill="#EFEEE0" fill-opacity="0.25"/>
</svg>
