<svg width="23" height="26" viewBox="0 0 23 26" fill="none" xmlns="http://www.w3.org/2000/svg">
<path d="M6.18309 4.16937V17.427C6.18292 17.4586 6.17539 17.4897 6.1611 17.518C6.14682 17.5462 6.12616 17.5707 6.10078 17.5895C6.07539 17.6084 6.04596 17.621 6.01482 17.6266C5.98369 17.6321 5.9517 17.6303 5.92138 17.6213C5.47555 17.4939 5.0141 17.4295 4.55042 17.4299C2.03728 17.4299 0 19.2753 0 21.5516C0 23.8279 2.03728 25.6733 4.55042 25.6733C6.27751 25.6733 8.00501 24.7345 8.72299 23.1339C9.34694 21.7429 9.10084 20.0707 9.10084 18.5789V7.79588C9.10098 7.71948 9.12698 7.64538 9.17461 7.58564C9.22224 7.5259 9.28869 7.48405 9.36315 7.46691L19.01 5.22636C19.0597 5.21468 19.1113 5.21436 19.1612 5.22543C19.211 5.2365 19.2577 5.25867 19.2977 5.2903C19.3378 5.32192 19.3702 5.36217 19.3925 5.40807C19.4149 5.45396 19.4266 5.5043 19.4267 5.55534V16.4134C19.4266 16.445 19.4191 16.4762 19.4048 16.5044C19.3905 16.5326 19.3699 16.5571 19.3445 16.576C19.3191 16.5949 19.2896 16.6076 19.2585 16.6131C19.2274 16.6186 19.1954 16.6168 19.165 16.6078C18.7192 16.4804 18.2578 16.4159 17.7941 16.4163C15.2809 16.4163 13.2437 18.2617 13.2437 20.538C13.2437 22.8145 15.2809 24.6597 17.794 24.6597C19.3149 24.6597 20.8271 23.8724 21.68 22.5844C22.5065 21.3362 22.3449 20.0251 22.3444 18.6148C22.3437 16.0996 22.3437 13.5844 22.3444 11.0692V1.01401C22.3439 0.862263 22.3095 0.712546 22.2436 0.57583C22.1778 0.439114 22.0822 0.318863 21.9638 0.223886C21.8455 0.12891 21.7074 0.0616146 21.5596 0.0269299C21.4119 -0.00775482 21.2583 -0.00895021 21.11 0.0234316L7.09577 3.04359C6.83785 3.09859 6.60657 3.24034 6.44049 3.4452C6.27441 3.65005 6.18356 3.90565 6.18309 4.16937Z" fill="#D9D9D9"/>
</svg>
